<svg t="1686217695694" class="icon" viewBox="0 0 1024 1024" version="1.1" xmlns="http://www.w3.org/2000/svg" p-id="1611" width="200" height="200"><path d="M899.116522 44.744348c31.165217 0 57.878261 26.713043 57.878261 57.878261v810.295652c0 31.165217-26.713043 57.878261-57.878261 57.878261h-774.678261c-31.165217 0-57.878261-26.713043-57.878261-57.878261v-810.295652c0-31.165217 26.713043-57.878261 57.878261-57.878261h774.678261z m0 48.973913h-774.678261s-4.452174 0-4.452174 4.452174l-4.452174 4.452174v810.295652s0 4.452174 4.452174 4.452174l4.452174 4.452174h774.678261s4.452174 0 4.452174-4.452174l4.452174-4.452174v-810.295652s0-4.452174-4.452174-4.452174 0-4.452174-4.452174-4.452174z m-235.965218 84.591304c17.808696 0 35.617391 17.808696 35.617392 35.617392v71.234782c35.617391 13.356522 57.878261 48.973913 57.878261 89.043478v89.043479c0 40.069565-22.26087 75.686957-57.878261 89.043478v249.321739c0 17.808696-17.808696 35.617391-35.617392 35.617391s-35.617391-17.808696-35.617391-35.617391v-253.773913c-35.617391-13.356522-57.878261-48.973913-57.878261-89.043478v-89.043479c0-40.069565 22.26087-75.686957 57.878261-89.043478v-66.782608c0-17.808696 13.356522-35.617391 35.617391-35.617392z m-302.747826 0c17.808696 0 35.617391 17.808696 35.617392 35.617392v222.608695c35.617391 13.356522 57.878261 48.973913 57.87826 89.043478v89.043479c0 40.069565-22.26087 75.686957-57.87826 89.043478v97.947826c0 17.808696-17.808696 35.617391-35.617392 35.617391s-35.617391-17.808696-35.617391-35.617391v-102.4c-35.617391-13.356522-57.878261-48.973913-57.878261-89.043478v-89.043478c0-40.069565 22.26087-75.686957 57.878261-89.043479v-222.608695c0-17.808696 17.808696-31.165217 35.617391-31.165218z m0 298.295652c-26.713043 0-44.521739 22.26087-44.521739 44.52174v89.043478c0 26.713043 22.26087 44.521739 44.521739 44.521739s44.521739-22.26087 44.521739-44.521739v-89.043478c0-22.26087-17.808696-44.521739-44.521739-44.52174z m302.747826-151.373913c-13.356522 0-26.713043 8.904348-35.617391 17.808696-4.452174 8.904348-8.904348 17.808696-8.904348 26.713043v89.043479c0 8.904348 4.452174 22.26087 8.904348 26.713043 8.904348 8.904348 22.26087 17.808696 35.617391 17.808696 13.356522 0 26.713043-8.904348 35.617392-17.808696 4.452174-8.904348 8.904348-17.808696 8.904347-26.713043v-89.043479c0-8.904348-4.452174-22.26087-8.904347-26.713043-8.904348-8.904348-22.26087-17.808696-35.617392-17.808696z" fill="#555555" p-id="1612"></path><path d="M899.116522 979.70087h-774.678261c-35.617391 0-66.782609-31.165217-66.782609-66.782609v-810.295652c0-35.617391 31.165217-66.782609 66.782609-66.782609h774.678261c35.617391 0 66.782609 31.165217 66.782608 66.782609v810.295652c4.452174 35.617391-26.713043 66.782609-66.782608 66.782609z m-774.678261-921.6c-26.713043 0-44.521739 22.26087-44.521739 44.521739v810.295652c0 26.713043 22.26087 44.521739 44.521739 44.521739h774.678261c26.713043 0 44.521739-22.26087 44.521739-44.521739v-810.295652c0-26.713043-22.26087-44.521739-44.521739-44.521739h-774.678261z m774.678261 872.626087h-774.678261c-4.452174 0-8.904348 0-13.356522-4.452174-4.452174-4.452174-4.452174-8.904348-4.452174-13.356522v-810.295652c0-4.452174 0-8.904348 4.452174-13.356522 4.452174-4.452174 8.904348-4.452174 13.356522-4.452174h774.678261c4.452174 0 8.904348 0 13.356521 4.452174s4.452174 8.904348 4.452174 13.356522v810.295652c0 4.452174 0 8.904348-4.452174 13.356522s-8.904348 4.452174-13.356521 4.452174z m-770.226087-22.26087h770.226087v-801.391304h-770.226087v801.391304z m-4.452174-801.391304z m538.713043 739.060869c-26.713043 0-44.521739-22.26087-44.521739-44.521739v-244.869565c-35.617391-17.808696-57.878261-53.426087-57.878261-93.495652v-89.043479c0-40.069565 22.26087-75.686957 57.878261-93.495652v-66.782608c0-26.713043 22.26087-44.521739 44.521739-44.52174s44.521739 22.26087 44.521739 44.52174v62.330434c35.617391 17.808696 57.878261 53.426087 57.878261 93.495652v89.043479c0 40.069565-22.26087 75.686957-57.878261 93.495652v249.321739c0 26.713043-22.26087 44.521739-44.521739 44.521739z m0-654.469565c-13.356522 0-22.26087 8.904348-22.260869 22.26087v80.13913l-8.904348 4.452174c-31.165217 13.356522-53.426087 44.521739-53.426087 75.686956v89.043479c0 35.617391 22.26087 66.782609 53.426087 75.686956l8.904348 4.452174v258.226087c0 13.356522 8.904348 22.26087 22.260869 22.26087s22.26087-8.904348 22.26087-22.26087v-258.226087l8.904348-4.452174c31.165217-13.356522 53.426087-44.521739 53.426087-75.686956v-89.043479c0-35.617391-22.26087-66.782609-53.426087-75.686956l-8.904348-4.452174v-80.13913c0-13.356522-8.904348-22.26087-22.26087-22.26087z m-302.747826 654.469565c-26.713043 0-44.521739-22.26087-44.521739-44.521739v-93.495652c-35.617391-17.808696-57.878261-53.426087-57.878261-93.495652v-89.043479c0-40.069565 22.26087-75.686957 57.878261-93.495652v-218.156521c0-26.713043 22.26087-44.521739 44.521739-44.52174 26.713043 0 44.521739 22.26087 44.521739 44.52174v213.704347c40.069565 17.808696 62.330435 53.426087 62.330435 93.495653v89.043478c0 40.069565-22.26087 75.686957-57.878261 93.495652v97.947826c0 22.26087-22.26087 44.521739-48.973913 44.521739z m0-658.921739c-13.356522 0-22.26087 8.904348-22.260869 22.26087v227.060869l-8.904348 8.904348c-31.165217 13.356522-53.426087 44.521739-53.426087 75.686957v89.043478c0 35.617391 22.26087 66.782609 53.426087 75.686956l8.904348 4.452174v111.304348c0 13.356522 8.904348 22.26087 22.260869 22.26087s22.26087-8.904348 22.26087-22.26087v-111.304348l8.904348-4.452174c31.165217-13.356522 53.426087-44.521739 53.426087-75.686956v-89.043478c0-31.165217-22.26087-62.330435-53.426087-75.686957l-4.452174-4.452174v-227.060869c0-13.356522-13.356522-26.713043-26.713044-26.713044z m0 480.834783c-31.165217 0-57.878261-26.713043-57.878261-57.878261v-89.043478c0-31.165217 26.713043-57.878261 57.878261-57.878261 31.165217 0 57.878261 26.713043 57.878261 57.878261v89.043478c0 31.165217-26.713043 57.878261-57.878261 57.878261z m0-178.086957c-17.808696 0-35.617391 13.356522-35.617391 35.617391v89.043479c0 17.808696 13.356522 35.617391 35.617391 35.617391s35.617391-13.356522 35.617392-35.617391v-89.043479c0-22.26087-17.808696-35.617391-35.617392-35.617391z m302.747826 26.713044c-17.808696 0-35.617391-8.904348-44.521739-22.26087-8.904348-8.904348-13.356522-22.26087-13.356522-35.617391v-89.043479c0-13.356522 4.452174-26.713043 13.356522-35.617391 13.356522-13.356522 26.713043-22.26087 44.521739-22.260869s31.165217 8.904348 44.521739 22.260869c8.904348 8.904348 13.356522 22.26087 13.356522 35.617391v89.043479c0 13.356522-4.452174 26.713043-13.356522 35.617391-13.356522 17.808696-31.165217 22.26087-44.521739 22.26087z m0-178.086957c-8.904348 0-17.808696 4.452174-26.713043 13.356522-4.452174 4.452174-8.904348 13.356522-8.904348 22.260869v89.043479c0 8.904348 4.452174 17.808696 8.904348 22.260869 8.904348 8.904348 17.808696 13.356522 26.713043 13.356522 8.904348 0 17.808696-4.452174 26.713044-13.356522 4.452174-4.452174 8.904348-13.356522 8.904348-22.260869v-89.043479c0-8.904348-4.452174-17.808696-8.904348-22.260869-8.904348-8.904348-17.808696-13.356522-26.713044-13.356522z" fill="currentColor" p-id="1613"></path></svg>