<svg t="1705656933118" class="icon" viewBox="0 0 1077 1024" version="1.1" xmlns="http://www.w3.org/2000/svg" p-id="4693" width="200" height="200"><path d="M1077.784644 817.779604H0V0h1077.784644zM80.163419 737.616185h917.457806V80.163419H80.163419zM171.474564 943.836581h733.157095v80.163419H171.474564z" p-id="4694"></path><path d="M466.563625 598.695485a40.08171 40.08171 0 0 1-28.683474-12.099666l-197.690507-202.663144L88.104608 510.666031a40.090477 40.090477 0 0 1-51.354691-61.575527l180.580627-150.469242a40.08171 40.08171 0 0 1 54.360819 2.805719l188.534341 193.281519 190.638631-294.174697a40.08171 40.08171 0 0 1 65.608749-2.379851L876.161119 409.334459a40.08171 40.08171 0 0 1-63.880224 48.348562l-125.255342-165.562512-186.830869 288.287696a40.08171 40.08171 0 0 1-29.672991 18.086872 38.490967 38.490967 0 0 1-3.958068 0.200408z" p-id="4695"></path></svg>
