<?xml version="1.0" standalone="no"?><!DOCTYPE svg PUBLIC "-//W3C//DTD SVG 1.1//EN" "http://www.w3.org/Graphics/SVG/1.1/DTD/svg11.dtd"><svg t="1759124182844" class="icon" viewBox="0 0 1024 1024" version="1.1" xmlns="http://www.w3.org/2000/svg" p-id="4762" xmlns:xlink="http://www.w3.org/1999/xlink" width="200" height="200"><path d="M469.333333 438.08v-113.322667A192 192 0 1 0 704 512c0-39.125333-11.669333-76.373333-33.216-107.968a42.666667 42.666667 0 1 1 70.528-48.064A276.202667 276.202667 0 0 1 789.333333 512c0 153.173333-124.16 277.333333-277.333333 277.333333s-277.333333-124.16-277.333333-277.333333c0-138.666667 101.76-253.546667 234.666666-274.069333V130.346667C277.333333 151.573333 128 314.346667 128 512c0 212.074667 171.925333 384 384 384s384-171.925333 384-384c0-87.36-29.205333-170.133333-82.090667-237.333333a42.666667 42.666667 0 1 1 67.050667-52.778667A467.434667 467.434667 0 0 1 981.333333 512c0 259.2-210.133333 469.333333-469.333333 469.333333S42.666667 771.2 42.666667 512 252.8 42.666667 512 42.666667c11.776 0 22.442667 4.778667 30.165333 12.501333 7.722667 7.722667 12.501333 18.389333 12.501334 30.165333v352.746667a85.333333 85.333333 0 1 1-85.333334 0z" p-id="4763"></path></svg>