<svg t="1687678114366" class="icon" viewBox="0 0 1024 1024" version="1.1" xmlns="http://www.w3.org/2000/svg" p-id="4907" width="64" height="64"><path d="M520.897959 569.737136a284.84751 284.84751 0 1 0-160.992443-50.154602A493.697399 493.697399 0 0 0 22.223386 985.714044a38.285956 38.285956 0 0 0 38.285956 38.285956h355.485099a38.285956 38.285956 0 1 0 0-76.571911H100.518166a421.145513 421.145513 0 0 1 420.379793-377.690953zM313.00522 285.272485a207.89274 207.89274 0 1 1 207.892739 207.892739 208.084169 208.084169 0 0 1-207.892739-207.892739z" p-id="4908"></path><path d="M962.717888 722.498099h-55.897495v-14.740093a142.232325 142.232325 0 0 0-284.464651 0v14.740093h-55.897495a38.285956 38.285956 0 0 0-38.285956 38.285955v224.92999a38.285956 38.285956 0 0 0 38.285956 38.285956h396.259641a38.285956 38.285956 0 0 0 38.285956-38.285956V760.784054a38.285956 38.285956 0 0 0-38.285956-38.285955z m-263.790234-14.740093a65.660414 65.660414 0 0 1 131.320828 0v14.740093h-131.320828z m225.504279 239.670083h-319.687731V799.07001h319.687731z" p-id="4909"></path></svg>
