<svg t="1693040501761" class="icon" viewBox="0 0 1024 1024" version="1.1" xmlns="http://www.w3.org/2000/svg" p-id="4015" width="200" height="200"><path d="M838.4 275.2C780.8 217.6 723.2 153.6 659.2 96c-19.2-25.6-38.4-32-70.4-32h-352c-57.6 0-76.8 19.2-76.8 76.8v742.4c0 51.2 19.2 76.8 70.4 76.8h556.8c57.6 0 76.8-19.2 76.8-76.8V345.6c0-32-6.4-51.2-25.6-70.4z m-12.8 595.2c0 32-12.8 51.2-51.2 51.2H243.2c-38.4 0-44.8-19.2-44.8-51.2V512 166.4c0-44.8 12.8-64 57.6-64h294.4c38.4 0 57.6 12.8 51.2 51.2V256c0 51.2 19.2 70.4 70.4 70.4h102.4c38.4 0 51.2 12.8 51.2 51.2v492.8z" p-id="4016"></path><path d="M691.2 428.8H332.8c-12.8 0-32 0-38.4 19.2 0 19.2 19.2 19.2 32 19.2h364.8c12.8 0 32 0 32-19.2 0-25.6-19.2-19.2-32-19.2zM691.2 563.2H326.4c-12.8 0-32 0-32 19.2s19.2 19.2 32 19.2H691.2c12.8 0 32 0 32-19.2s-19.2-19.2-32-19.2zM691.2 697.6h-352c-12.8 0-32 0-38.4 19.2 0 25.6 19.2 19.2 38.4 19.2h358.4c12.8 0 32 0 38.4-19.2-12.8-25.6-32-19.2-44.8-19.2z" p-id="4017"></path></svg>
