<svg t="1686218190374" class="icon" viewBox="0 0 1024 1024" version="1.1" xmlns="http://www.w3.org/2000/svg" p-id="9211" width="200" height="200"><path d="M928 277.333333c-19.2-32-64-49.066667-123.733333-49.066666-40.533333 0-87.466667 6.4-136.533334 21.333333C633.6 123.733333 576 42.666667 512 42.666667s-121.6 81.066667-155.733333 206.933333c-51.2-12.8-98.133333-21.333333-136.533334-21.333333-59.733333 0-104.533333 14.933333-123.733333 49.066666-32 55.466667 10.666667 142.933333 104.533333 234.666667C106.666667 603.733333 64 691.2 96 746.666667c19.2 32 64 49.066667 123.733333 49.066666 40.533333 0 87.466667-6.4 136.533334-21.333333C390.4 900.266667 448 981.333333 512 981.333333s121.6-81.066667 155.733333-206.933333c51.2 12.8 98.133333 21.333333 136.533334 21.333333 59.733333 0 104.533333-14.933333 123.733333-49.066666 32-55.466667-12.8-142.933333-104.533333-234.666667 93.866667-91.733333 136.533333-179.2 104.533333-234.666667z m-123.733333-6.4c44.8 0 74.666667 10.666667 85.333333 27.733334 10.666667 19.2 4.266667 64-51.2 132.266666-14.933333 17.066667-29.866667 34.133333-46.933333 51.2-27.733333-25.6-61.866667-49.066667-96-74.666666-4.266667-42.666667-10.666667-81.066667-17.066667-117.333334 44.8-12.8 89.6-19.2 125.866667-19.2z m-219.733334 362.666667c-23.466667 12.8-46.933333 25.6-72.533333 36.266667-23.466667-10.666667-46.933333-23.466667-72.533333-36.266667-23.466667-12.8-46.933333-27.733333-68.266667-42.666667-2.133333-25.6-2.133333-51.2-2.133333-78.933333s2.133333-53.333333 2.133333-78.933333c21.333333-14.933333 44.8-27.733333 68.266667-42.666667 23.466667-12.8 46.933333-25.6 72.533333-36.266667 23.466667 10.666667 46.933333 23.466667 72.533333 36.266667 23.466667 12.8 46.933333 27.733333 68.266667 42.666667 2.133333 25.6 2.133333 51.2 2.133333 78.933333s-2.133333 53.333333-2.133333 78.933333c-21.333333 14.933333-44.8 29.866667-68.266667 42.666667z m64 12.8c-4.266667 25.6-8.533333 51.2-12.8 74.666667-23.466667-8.533333-46.933333-17.066667-72.533333-27.733334 14.933333-6.4 27.733333-14.933333 42.666667-23.466666 14.933333-6.4 27.733333-14.933333 42.666666-23.466667z m-187.733333 46.933333c-25.6 10.666667-49.066667 19.2-72.533333 27.733334-4.266667-23.466667-8.533333-49.066667-12.8-74.666667 12.8 8.533333 27.733333 17.066667 42.666666 25.6 14.933333 6.4 27.733333 14.933333 42.666667 21.333333z m-134.4-134.4c-21.333333-14.933333-40.533333-32-59.733333-46.933333 19.2-17.066667 38.4-32 59.733333-46.933333V512c0 14.933333-2.133333 32 0 46.933333z m49.066667-181.333333c4.266667-25.6 8.533333-51.2 12.8-74.666667 23.466667 8.533333 46.933333 17.066667 72.533333 27.733334-14.933333 6.4-27.733333 14.933333-42.666667 23.466666-14.933333 6.4-27.733333 14.933333-42.666666 23.466667z m187.733333-46.933333c25.6-10.666667 49.066667-19.2 72.533333-27.733334 4.266667 23.466667 8.533333 49.066667 12.8 74.666667-12.8-8.533333-27.733333-17.066667-42.666666-25.6-14.933333-6.4-27.733333-14.933333-42.666667-21.333333z m134.4 134.4c21.333333 14.933333 40.533333 32 59.733333 46.933333-19.2 17.066667-38.4 32-59.733333 46.933333V512c0-14.933333 2.133333-32 0-46.933333zM512 85.333333c36.266667 0 83.2 64 113.066667 177.066667-36.266667 10.666667-74.666667 27.733333-113.066667 44.8-38.4-17.066667-76.8-32-113.066667-44.8C428.8 149.333333 475.733333 85.333333 512 85.333333zM134.4 298.666667c10.666667-17.066667 40.533333-27.733333 85.333333-27.733334 36.266667 0 81.066667 6.4 128 19.2-8.533333 36.266667-12.8 76.8-17.066666 117.333334-34.133333 23.466667-68.266667 49.066667-96 74.666666-17.066667-17.066667-34.133333-34.133333-46.933334-51.2C130.133333 362.666667 121.6 317.866667 134.4 298.666667z m85.333333 454.4c-44.8 0-74.666667-10.666667-85.333333-27.733334-10.666667-19.2-4.266667-64 51.2-132.266666 14.933333-17.066667 29.866667-34.133333 46.933333-51.2 27.733333 25.6 61.866667 49.066667 96 74.666666 4.266667 42.666667 10.666667 81.066667 17.066667 117.333334-44.8 12.8-89.6 19.2-125.866667 19.2zM512 938.666667c-36.266667 0-83.2-64-113.066667-177.066667 36.266667-10.666667 74.666667-27.733333 113.066667-44.8 38.4 17.066667 76.8 32 113.066667 44.8C595.2 874.666667 548.266667 938.666667 512 938.666667z m377.6-213.333334c-10.666667 17.066667-40.533333 27.733333-85.333333 27.733334-36.266667 0-81.066667-6.4-128-19.2 8.533333-36.266667 12.8-76.8 17.066666-117.333334 34.133333-23.466667 68.266667-49.066667 96-74.666666 17.066667 17.066667 34.133333 34.133333 46.933334 51.2 57.6 68.266667 66.133333 113.066667 53.333333 132.266666z" p-id="9212"></path></svg>